<svg width="230" height="50" viewBox="0 0 230 50" fill="none" xmlns="http://www.w3.org/2000/svg">
<g clip-path="url(#clip0_0_1)">
<rect width="230" height="50" fill="white"/>
<path d="M6.2 19.02H10.96V29.54H21.58V33.02H6.2V19.02ZM24.0959 31.9C23.2559 31.12 22.8559 30.18 22.8559 29.08V22.64H27.1159V27.68C27.1159 28.5 27.3559 29.12 27.8159 29.56C28.0759 29.82 28.4159 30 28.8359 30.1C29.1359 30.18 54.4159 30.22 54.7959 30.22C55.7559 30.22 56.5159 29.96 57.0759 29.46C57.6559 28.96 57.9359 28.28 57.9359 27.46V22.64H62.1759V32.84H57.9759V31.1C57.0959 31.96 56.0559 32.54 54.8559 32.84C54.4959 32.92 29.1959 32.98 28.7959 33.02C28.5359 33.04 28.2559 33.06 27.9559 33.06H27.8359C26.1759 33.06 24.9159 32.68 24.0959 31.9ZM71.9027 33.08C70.7027 33.08 69.6427 32.96 68.7027 32.74C67.7627 32.52 67.0227 32.24 66.4827 31.9C65.9427 31.56 65.4827 31.16 65.1227 30.68C64.7827 30.2 64.5427 29.74 64.4227 29.28C64.3027 28.84 64.2427 28.36 64.2427 27.88V27.5C64.2427 27.02 64.3027 26.56 64.4227 26.1C64.5427 25.66 64.7827 25.22 65.1227 24.74C65.4627 24.28 65.9227 23.9 66.4627 23.56C67.0227 23.22 67.7627 22.96 68.6827 22.74C69.6227 22.54 70.6827 22.42 71.8827 22.42H73.0427C74.3427 22.42 75.5027 22.54 76.4827 22.76C77.4627 22.98 78.2227 23.26 78.7427 23.58C79.2627 23.9 79.6827 24.28 80.0227 24.7C80.3427 25.14 80.5427 25.52 80.6427 25.84C80.7227 26.18 80.7627 26.5 80.7627 26.84V26.88H76.0827C75.7827 25.68 74.5627 25.06 72.4427 25.06H72.3827C71.1627 25.06 70.2827 25.3 69.7227 25.78C69.1627 26.24 68.9027 26.84 68.9027 27.56V27.7C68.9027 28.46 69.1827 29.1 69.7227 29.62C70.2827 30.14 71.1827 30.4 72.3827 30.4H72.4427C74.5427 30.4 75.7627 29.78 76.0827 28.54H80.7627V28.58C80.7627 28.92 80.7227 29.26 80.6427 29.6C80.5627 29.92 80.3627 30.32 80.0627 30.76C79.7427 31.2 79.3227 31.58 78.8027 31.9C78.2827 32.22 77.5227 32.5 76.5227 32.72C75.5227 32.96 74.3627 33.08 73.0227 33.08H71.9027ZM96.8969 30.3H97.4569V33.12H93.9569C92.9969 33.12 92.4569 32.64 92.2969 31.7C91.9769 32.08 91.4369 32.46 90.6569 32.8C89.8769 33.14 88.8169 33.3 87.4769 33.3H87.2369C85.5969 33.3 84.3769 32.98 83.5769 32.34C82.7769 31.7 82.3969 30.9 82.3969 29.92V29.78C82.3969 28.84 82.7169 28.12 83.3969 27.62C84.0769 27.14 85.1969 26.82 86.7569 26.68L91.5369 26.24C91.9569 26.18 92.1769 26 92.1769 25.7C92.1769 25.52 92.1369 25.4 92.0569 25.28C91.9769 25.18 91.7169 25.08 91.2969 25C90.8769 24.9 90.2569 24.84 89.4769 24.84L82.3969 24.86V22.46H89.9169C91.0769 22.46 92.0769 22.52 92.8969 22.66C93.7369 22.8 94.3569 22.98 94.7969 23.18C95.2369 23.4 95.5769 23.66 95.8169 23.98C96.0769 24.32 96.2169 24.6 96.2769 24.86C96.3169 25.12 96.3569 25.44 96.3569 25.8V29.78C96.3569 30.12 96.5369 30.3 96.8969 30.3ZM92.1769 28.5V28.18L88.0569 28.82C87.4769 28.9 87.0769 29.02 86.8369 29.16C86.6169 29.3 86.4969 29.5 86.4969 29.78V29.8C86.4969 30.12 86.6369 30.4 86.9369 30.64C87.2369 30.86 87.7169 30.98 88.3969 30.98C89.4969 30.98 90.4169 30.72 91.1169 30.22C91.8369 29.72 92.1769 29.16 92.1769 28.5ZM105.491 33.24C100.771 33.24 98.4311 32.06 98.4311 29.66V29.54H103.131C103.131 30.46 104.071 30.92 105.951 30.92H105.991C106.771 30.92 107.391 30.86 107.831 30.76C108.271 30.66 108.551 30.56 108.671 30.44C108.771 30.3 108.831 30.16 108.831 29.96V29.92C108.831 29.64 108.671 29.42 108.371 29.28C108.051 29.14 107.411 29.06 106.411 29.04L104.451 29C103.311 28.98 102.331 28.88 101.511 28.68C100.711 28.5 100.091 28.24 99.6711 27.94C99.2711 27.62 98.9711 27.3 98.7911 26.96C98.6111 26.62 98.5311 26.26 98.5311 25.86V25.74C98.5311 25.4 98.5711 25.08 98.6511 24.8C98.7511 24.54 98.9311 24.24 99.2311 23.96C99.5311 23.68 99.9111 23.44 100.411 23.24C100.891 23.06 101.571 22.9 102.431 22.78C103.291 22.66 104.311 22.6 105.471 22.6H106.291C110.891 22.6 113.191 23.64 113.191 25.76V25.9H108.531C108.511 25.76 108.471 25.66 108.411 25.56C108.371 25.48 108.251 25.36 108.091 25.24C107.931 25.12 107.651 25.04 107.271 24.96C106.871 24.9 106.391 24.86 105.831 24.86H105.811C104.771 24.86 104.071 24.92 103.711 25.04C103.371 25.14 103.191 25.34 103.191 25.62V25.64C103.191 25.9 103.351 26.1 103.671 26.22C104.011 26.36 104.611 26.44 105.491 26.46L107.451 26.5C109.111 26.52 110.391 26.66 111.291 26.92C112.211 27.18 112.831 27.52 113.131 27.94C113.431 28.36 113.591 28.94 113.591 29.66V29.78C113.591 30.28 113.491 30.74 113.291 31.12C113.091 31.5 112.751 31.86 112.251 32.2C111.751 32.54 111.011 32.8 110.011 32.98C109.011 33.16 107.791 33.24 106.331 33.24H105.491ZM134.483 33.26C132.963 33.26 131.623 33.14 130.503 32.9C129.363 32.66 128.483 32.38 127.863 32.04C127.263 31.7 126.763 31.28 126.403 30.8C126.043 30.32 125.803 29.88 125.703 29.5C125.603 29.12 125.563 28.7 125.563 28.26V28.06H130.543C130.643 29.54 131.723 30.28 134.643 30.28H135.743C136.703 30.28 137.103 30.22 137.743 30.14C138.363 30.06 138.823 29.96 139.103 29.8C139.403 29.64 139.583 29.5 139.683 29.34C139.783 29.18 139.823 29 139.823 28.78C139.823 28.48 139.743 28.24 139.583 28.06C139.423 27.9 139.023 27.74 138.423 27.6C137.823 27.48 136.963 27.4 135.823 27.38L134.323 27.34L133.203 27.32C128.243 27.2 125.763 25.82 125.763 23.22V23.04C125.763 22.6 125.823 22.18 125.943 21.8C126.063 21.42 126.303 21.04 126.683 20.64C127.043 20.26 127.523 19.94 128.123 19.68C128.723 19.42 129.523 19.2 130.543 19.04C131.543 18.86 132.723 18.78 134.063 18.78H135.483C136.863 18.78 138.103 18.86 139.163 19.04C140.243 19.22 141.083 19.44 141.723 19.72C142.363 20 142.883 20.34 143.283 20.74C143.683 21.14 143.963 21.54 144.103 21.92C144.263 22.32 144.343 22.74 144.343 23.2V23.38H139.383C139.343 23.24 139.303 23.1 139.263 23C139.223 22.9 139.103 22.76 138.923 22.58C138.743 22.4 138.523 22.26 138.223 22.14C137.943 22.04 137.503 21.94 136.943 21.84C136.383 21.76 135.943 21.72 135.183 21.72H134.483C133.323 21.72 132.603 21.78 131.983 21.9C131.383 22.04 131.003 22.18 130.883 22.32C130.743 22.46 130.683 22.66 130.683 22.92C130.683 23.16 130.743 23.34 130.903 23.5C131.043 23.64 131.383 23.78 131.923 23.92C132.463 24.04 133.223 24.1 134.203 24.12L135.323 24.14L136.763 24.16C139.623 24.2 141.663 24.56 142.923 25.22C144.203 25.88 144.823 26.9 144.823 28.32V28.58C144.823 29.1 144.763 29.56 144.643 29.96C144.523 30.36 144.263 30.78 143.883 31.22C143.503 31.64 143.003 32 142.363 32.28C141.723 32.58 140.863 32.8 139.763 32.98C138.663 33.18 137.363 33.26 135.883 33.26H134.483ZM160.608 30.3H161.168V33.12H157.668C156.708 33.12 156.168 32.64 156.008 31.7C155.688 32.08 155.148 32.46 154.368 32.8C153.588 33.14 152.528 33.3 151.188 33.3H150.948C149.308 33.3 148.088 32.98 147.288 32.34C146.488 31.7 146.108 30.9 146.108 29.92V29.78C146.108 28.84 146.428 28.12 147.108 27.62C147.788 27.14 148.908 26.82 150.468 26.68L155.248 26.24C155.668 26.18 155.888 26 155.888 25.7C155.888 25.52 155.848 25.4 155.768 25.28C155.688 25.18 155.428 25.08 155.008 25C154.588 24.9 153.968 24.84 153.188 24.84L146.108 24.86V22.46H153.628C154.788 22.46 155.788 22.52 156.608 22.66C157.448 22.8 158.068 22.98 158.508 23.18C158.948 23.4 159.288 23.66 159.528 23.98C159.788 24.32 159.928 24.6 159.988 24.86C160.028 25.12 160.068 25.44 160.068 25.8V29.78C160.068 30.12 160.248 30.3 160.608 30.3ZM155.888 28.5V28.18L151.768 28.82C151.188 28.9 150.788 29.02 150.548 29.16C150.328 29.3 150.208 29.5 150.208 29.78V29.8C150.208 30.12 150.348 30.4 150.648 30.64C150.948 30.86 151.428 30.98 152.108 30.98C153.208 30.98 154.128 30.72 154.828 30.22C155.548 29.72 155.888 29.16 155.888 28.5ZM162.602 22.82H167.102V24.54C168.522 23.24 170.342 22.6 172.562 22.6H172.722C174.502 22.6 175.842 22.98 176.722 23.74C177.622 24.52 178.062 25.44 178.062 26.54V32.9H173.462V27.92C173.462 27.12 173.222 26.5 172.742 26.06C172.242 25.62 171.502 25.4 170.522 25.4C169.502 25.4 168.682 25.66 168.062 26.16C167.462 26.66 167.142 27.32 167.142 28.14V32.9H162.602V22.82ZM184.982 32.9C183.162 32.9 182.262 31.96 182.262 30.04V25.6H180.122V22.82H182.262V19.88H186.762V22.82H188.922V25.6H186.762V29.26C186.762 29.56 186.822 29.78 186.942 29.92C187.062 30.06 187.302 30.14 187.682 30.14H188.922V32.9H184.982ZM199.901 33.06H198.461C197.241 33.06 196.141 32.94 195.201 32.72C194.261 32.5 193.501 32.24 192.921 31.9C192.341 31.56 191.881 31.14 191.521 30.68C191.141 30.2 190.901 29.74 190.761 29.28C190.621 28.82 190.561 28.34 190.561 27.84V27.5C190.561 27 190.621 26.54 190.761 26.08C190.901 25.62 191.141 25.18 191.501 24.72C191.861 24.24 192.321 23.86 192.901 23.52C193.481 23.18 194.241 22.92 195.181 22.72C196.121 22.5 197.221 22.4 198.441 22.4H199.901C205.141 22.4 207.761 24.1 207.761 27.5V27.84C207.761 31.32 205.141 33.06 199.901 33.06ZM199.181 30.34C200.601 30.34 201.621 30.08 202.221 29.56C202.841 29.06 203.141 28.44 203.141 27.74V27.64C203.141 26.92 202.841 26.3 202.221 25.82C201.621 25.32 200.601 25.08 199.201 25.08H199.181C197.741 25.08 196.721 25.32 196.121 25.8C195.521 26.28 195.221 26.9 195.221 27.64V27.74C195.221 28.44 195.521 29.06 196.141 29.56C196.741 30.08 197.761 30.34 199.181 30.34ZM216.038 33.24C211.318 33.24 208.978 32.06 208.978 29.66V29.54H213.678C213.678 30.46 214.618 30.92 216.498 30.92H216.538C217.318 30.92 217.938 30.86 218.378 30.76C218.818 30.66 219.098 30.56 219.218 30.44C219.318 30.3 219.378 30.16 219.378 29.96V29.92C219.378 29.64 219.218 29.42 218.918 29.28C218.598 29.14 217.958 29.06 216.958 29.04L214.998 29C213.858 28.98 212.878 28.88 212.058 28.68C211.258 28.5 210.638 28.24 210.218 27.94C209.818 27.62 209.518 27.3 209.338 26.96C209.158 26.62 209.078 26.26 209.078 25.86V25.74C209.078 25.4 209.118 25.08 209.198 24.8C209.298 24.54 209.478 24.24 209.778 23.96C210.078 23.68 210.458 23.44 210.958 23.24C211.438 23.06 212.118 22.9 212.978 22.78C213.838 22.66 214.858 22.6 216.018 22.6H216.838C221.438 22.6 223.738 23.64 223.738 25.76V25.9H219.078C219.058 25.76 219.018 25.66 218.958 25.56C218.918 25.48 218.798 25.36 218.638 25.24C218.478 25.12 218.198 25.04 217.818 24.96C217.418 24.9 216.938 24.86 216.378 24.86H216.358C215.318 24.86 214.618 24.92 214.258 25.04C213.918 25.14 213.738 25.34 213.738 25.62V25.64C213.738 25.9 213.898 26.1 214.218 26.22C214.558 26.36 215.158 26.44 216.038 26.46L217.998 26.5C219.658 26.52 220.938 26.66 221.838 26.92C222.758 27.18 223.378 27.52 223.678 27.94C223.978 28.36 224.138 28.94 224.138 29.66V29.78C224.138 30.28 224.038 30.74 223.838 31.12C223.638 31.5 223.298 31.86 222.798 32.2C222.298 32.54 221.558 32.8 220.558 32.98C219.558 33.16 218.338 33.24 216.878 33.24H216.038Z" fill="black"/>
</g>
<defs>
<clipPath id="clip0_0_1">
<rect width="230" height="50" fill="white"/>
</clipPath>
</defs>
</svg>
